<?xml version="1.0" encoding="UTF-8"?>
<svg width="66px" height="61px" viewBox="0 0 66 61" version="1.1" xmlns="http://www.w3.org/2000/svg" xmlns:xlink="http://www.w3.org/1999/xlink">
    <title>Group 4</title>
    <g id="컴포넌트" stroke="none" stroke-width="1" fill="none" fill-rule="evenodd">
        <g id="제스쳐-리스트" transform="translate(-68.000000, -373.000000)" fill-rule="nonzero">
            <g id="Group-Copy-2" transform="translate(16.000000, 342.035088)">
                <g id="Group-4" transform="translate(52.689752, 31.764614)">
                    <g id="Group-3" transform="translate(0.000000, 0.000000)">
                        <g id="hand.tap.fill" transform="translate(10.310248, 1.200298)" fill="#E67A7A">
                            <rect id="Rectangle" opacity="0" x="0" y="0" width="43.8405797" height="58.1884058"></rect>
                            <g id="hand.point.up.left.fill" transform="translate(8.768116, 7.173913)">
                                <rect id="Rectangle" opacity="0" x="0" y="0" width="46.2318841" height="51.0144928"></rect>
                                <path d="M33.8505174,49.7122212 C37.5899437,48.3504256 40.4907114,46.4366195 42.5528205,43.9708029 C44.6151172,41.5049862 45.811163,38.6021966 46.1409578,35.2624339 C46.4709403,31.9224829 45.9027623,28.2375323 44.4364237,24.2075822 L42.6491123,19.2391765 C42.0991414,17.7118437 41.407173,16.4789448 40.573207,15.5404798 C39.739241,14.6019959 38.8639802,13.9671414 37.9474247,13.6359163 C37.0308692,13.3046911 36.1601133,13.2862907 35.3351571,13.5807152 C34.766979,13.8015194 34.5836867,14.1879456 34.7852801,14.7399938 L35.582644,16.9481773 C35.7660301,17.4634248 35.7890238,17.8912589 35.6516249,18.2316795 C35.5140384,18.572119 35.2894513,18.8067447 34.9778637,18.9355565 C34.6478812,19.0459586 34.3224975,19.0137557 34.0017124,18.8389476 C33.6809274,18.6641207 33.4197382,18.319093 33.2181448,17.8038643 L32.6955786,16.3685238 C32.2189998,15.0252134 31.4491345,14.086739 30.3859826,13.5531005 C29.3228308,13.0194621 28.2138794,12.964261 27.0591283,13.3874974 C26.0509548,13.7555232 25.7118405,14.3811729 26.0417855,15.2644462 L27.114116,18.2730874 C27.315747,18.7883349 27.3478255,19.216169 27.2103515,19.5565896 C27.0728588,19.8970291 26.8483093,20.1316547 26.536703,20.2604666 C26.206758,20.3708687 25.876813,20.3432635 25.5468681,20.1776509 C25.2169231,20.0120383 24.9602951,19.6624128 24.776984,19.1287744 L23.7596412,16.3685238 C23.2097266,14.8596008 22.4215227,13.879728 21.3950293,13.4289052 C20.3685172,12.9780637 19.2870174,12.964261 18.1505299,13.3874974 C17.1423564,13.7555232 16.8032515,14.3811729 17.1332152,15.2644462 L19.2503683,21.14374 C19.4519993,21.6589875 19.4840778,22.0914193 19.3466038,22.4410354 C19.2091299,22.7906703 18.9845803,23.0206889 18.6729552,23.131091 C18.3430103,23.2415119 18.0130653,23.2139161 17.6831203,23.0483035 C17.3531754,22.8826909 17.0965474,22.533056 16.9132363,21.9993987 L9.76438493,2.31897111 C9.41610135,1.36209067 8.86160686,0.695035079 8.10090146,0.317804328 C7.34017729,-0.0594271766 6.55655331,-0.100830322 5.75002952,0.193594892 C4.88848988,0.506419703 4.28816762,1.05386454 3.94906273,1.83592939 C3.60993907,2.61799048 3.61451904,3.48745841 3.96280262,4.4443332 L14.4111411,33.2610071 C14.5394551,33.6107363 14.5440351,33.9143939 14.424881,34.17198 C14.3057269,34.429566 14.1361745,34.5951975 13.9162237,34.6688742 C13.4762845,34.8345057 12.990527,34.641269 12.4589511,34.0891642 L5.39256725,26.4709667 C4.86099134,25.9189184 4.32482608,25.5692929 3.78407148,25.4220901 C3.24333565,25.2748685 2.68884491,25.3116692 2.12059927,25.5324922 C1.22240867,25.8453265 0.608339951,26.3651717 0.278393111,27.092028 C-0.0515542916,27.8189408 -0.0882151037,28.5504042 0.168410675,29.2864182 C0.278392642,29.5807485 0.40670525,29.8383346 0.553348498,30.0591765 C0.699991747,30.2800183 0.846634995,30.4824882 0.993278243,30.6665859 L9.70939723,41.679945 C13.3938077,46.3170596 17.3073476,49.192244 21.450017,50.3054982 C25.5926865,51.4187524 29.7261866,51.2209934 33.8505174,49.7122212 Z" id="Path"></path>
                            </g>
                        </g>
                        <rect id="Rectangle" fill="#000000" opacity="0" transform="translate(11.114198, 11.114198) rotate(45.000000) translate(-11.114198, -11.114198) " x="3.31024832" y="3.20029832" width="15.6079" height="15.8278"></rect>
                    </g>
                    <g id="line.diagonal.arrow" transform="translate(11.114198, 11.114198) rotate(45.000000) translate(-11.114198, -11.114198) translate(3.310248, 3.200298)" fill="#E67A7A">
                        <path d="M0.224609,15.3699 C0.380859,15.5197 0.568033667,15.5946 0.786133,15.5946 C1.004231,15.5946 1.18815,15.5197 1.33789,15.3699 L11.0352,5.69221 L12.8516,7.51838 C12.9818,7.64208 13.1168667,7.70393 13.2568,7.70393 C13.3968,7.70393 13.5237667,7.65347333 13.6377,7.55256 C13.7516333,7.45164667 13.8314,7.31004667 13.877,7.12776 L15.5859,0.799632 C15.6249667,0.636872 15.6119667,0.48876 15.5469,0.355296 C15.4817667,0.221832667 15.3808333,0.122548967 15.2441,0.0574449 C15.1074333,-0.0076593 14.9609667,-0.0174249333 14.8047,0.028148 L8.48633,1.72737 C8.30403667,1.77945 8.16080667,1.86083 8.05664,1.97151 C7.95247333,2.08218333 7.90039,2.20750667 7.90039,2.34748 C7.90039,2.48745333 7.96549333,2.61929 8.0957,2.74299 L9.93164,4.57893 L0.224609,14.2567 C0.0748696667,14.4064333 0,14.5903333 0,14.8084 C0,15.0265333 0.0748696667,15.2137 0.224609,15.3699 Z" id="Path"></path>
                    </g>
                </g>
            </g>
        </g>
    </g>
</svg>