<?xml version="1.0" encoding="UTF-8"?>
<svg width="55px" height="73px" viewBox="0 0 55 73" version="1.1" xmlns="http://www.w3.org/2000/svg" xmlns:xlink="http://www.w3.org/1999/xlink">
    <title>Group 4</title>
    <g id="컴포넌트" stroke="none" stroke-width="1" fill="none" fill-rule="evenodd">
        <g id="탭-제스쳐-리스트" transform="translate(-75.000000, -373.000000)">
            <g id="Group-4" transform="translate(75.000000, 373.000000)">
                <circle id="Oval" stroke="#979797" fill="#D8D8D8" cx="12.5" cy="12.5" r="10"></circle>
                <g id="hand.tap.fill" fill="#E67A7A" fill-rule="nonzero">
                    <rect id="Rectangle" opacity="0" x="0" y="0" width="55" height="73"></rect>
                    <path d="M42.1161401,61.6500421 C46.0073296,60.238827 49.0258239,58.2553922 51.171623,55.6997375 C53.3176173,53.1440828 54.5622042,50.1354371 54.9053836,46.6738004 C55.2487583,43.2123589 54.6575209,39.3932312 53.1316715,35.2164173 L51.2718227,30.0670251 C50.6995315,28.4839879 49.9794798,27.206141 49.1116676,26.2334846 C48.2438554,25.2608086 47.3330725,24.6028242 46.3793189,24.2595313 C45.4255654,23.9162385 44.5194702,23.8971678 43.6610334,24.2023191 C43.0506545,24.4311875 42.8504503,24.8317023 43.0604206,25.4038635 L43.9185644,27.6924692 C44.1093933,28.226489 44.1332225,28.6699202 43.990052,29.0227631 C43.8470768,29.3756059 43.6134727,29.6187212 43.2892394,29.752109 C42.9458647,29.8665529 42.60249,29.8332548 42.2591153,29.6522146 C41.9157405,29.4709791 41.6487364,29.1133515 41.4581029,28.5793318 L40.9143286,27.0917264 C40.3994618,25.6994746 39.5935664,24.7267986 38.4966424,24.1736984 C37.3999137,23.6206177 36.2507413,23.5634055 35.049125,24.0020617 C34.0000547,24.383496 33.6376362,25.0319402 33.9618694,25.9473942 L35.1062565,29.0656796 C35.2970853,29.5996602 35.3256999,30.0431013 35.1921002,30.3960027 C35.0586958,30.7487088 34.8297793,30.9918534 34.5053507,31.1254364 C34.1430299,31.2398804 33.7949674,31.2112694 33.4611635,31.0396035 C33.1273595,30.8679375 32.85557,30.5055642 32.645795,29.9524835 L31.6156708,27.0917264 C31.0433796,25.5278282 30.2184306,24.5122455 29.1408239,24.0449782 C28.0631195,23.577711 26.942503,23.5634055 25.7789744,24.0020617 C24.7298846,24.383496 24.3770075,25.0319402 24.7203431,25.9473942 L26.9234201,32.0408905 C27.1141708,32.5748321 27.1427854,33.0230383 27.0092638,33.3855093 C26.8757422,33.747785 26.646855,33.9861448 26.3226022,34.1005888 C25.9601837,34.2150327 25.6120724,34.1864217 25.2782684,34.0147558 C24.9444645,33.8430898 24.6821969,33.4807165 24.4914657,32.9276358 L17.0524516,12.5302658 C16.6900526,11.5385289 16.1130541,10.847178 15.3214562,10.4562132 C14.5298779,10.0652289 13.7144508,10.0223124 12.875175,10.3274638 C11.9596068,10.6516956 11.3301548,11.2190916 10.9868192,12.0296516 C10.6434835,12.8401922 10.6530249,13.7413407 11.0154435,14.7330972 L21.8877946,44.5997477 C22.0213162,44.9622187 22.0260918,45.2769396 21.9021215,45.5439104 C21.7781315,45.8108812 21.6016881,45.9825471 21.3727912,46.0589082 C20.8959339,46.2303788 20.3904621,46.0301019 19.8563757,45.4580774 L12.5032346,37.5623232 C11.9500849,36.9901034 11.3921595,36.6277301 10.8294586,36.4752032 C10.2667577,36.3224811 9.6802178,36.360564 9.06983895,36.5894519 C8.15427069,36.9136447 7.52481873,37.4524687 7.18148307,38.205924 C6.83814741,38.9591839 6.80000118,39.7173263 7.06704436,40.4803512 C7.18148307,40.7854048 7.31500466,41.0523756 7.46760914,41.2812636 C7.62019409,41.5101515 7.7727888,41.7199003 7.92539327,41.91051 L16.9952322,53.325123 C20.8291731,58.1313787 24.9015426,61.1114134 29.2123407,62.2652272 C33.5230803,63.419041 37.8243467,63.2139793 42.1161401,61.6500421 Z" id="Shape"></path>
                    <path d="M42.1161401,61.6500421 C46.0073296,60.238827 49.0258239,58.2553922 51.171623,55.6997375 C53.3176173,53.1440828 54.5622042,50.1354371 54.9053836,46.6738004 C55.2487583,43.2123589 54.6575209,39.3932312 53.1316715,35.2164173 L51.2718227,30.0670251 C50.6995315,28.4839879 49.9794798,27.206141 49.1116676,26.2334846 C48.2438554,25.2608086 47.3330725,24.6028242 46.3793189,24.2595313 C45.4255654,23.9162385 44.5194702,23.8971678 43.6610334,24.2023191 C43.0506545,24.4311875 42.8504503,24.8317023 43.0604206,25.4038635 L43.9185644,27.6924692 C44.1093933,28.226489 44.1332225,28.6699202 43.990052,29.0227631 C43.8470768,29.3756059 43.6134727,29.6187212 43.2892394,29.752109 C42.9458647,29.8665529 42.60249,29.8332548 42.2591153,29.6522146 C41.9157405,29.4709791 41.6487364,29.1133515 41.4581029,28.5793318 L40.9143286,27.0917264 C40.3994618,25.6994746 39.5935664,24.7267986 38.4966424,24.1736984 C37.3999137,23.6206177 36.2507413,23.5634055 35.049125,24.0020617 C34.0000547,24.383496 33.6376362,25.0319402 33.9618694,25.9473942 L35.1062565,29.0656796 C35.2970853,29.5996602 35.3256999,30.0431013 35.1921002,30.3960027 C35.0586958,30.7487088 34.8297793,30.9918534 34.5053507,31.1254364 C34.1430299,31.2398804 33.7949674,31.2112694 33.4611635,31.0396035 C33.1273595,30.8679375 32.85557,30.5055642 32.645795,29.9524835 L31.6156708,27.0917264 C31.0433796,25.5278282 30.2184306,24.5122455 29.1408239,24.0449782 C28.0631195,23.577711 26.942503,23.5634055 25.7789744,24.0020617 C24.7298846,24.383496 24.3770075,25.0319402 24.7203431,25.9473942 L26.9234201,32.0408905 C27.1141708,32.5748321 27.1427854,33.0230383 27.0092638,33.3855093 C26.8757422,33.747785 26.646855,33.9861448 26.3226022,34.1005888 C25.9601837,34.2150327 25.6120724,34.1864217 25.2782684,34.0147558 C24.9444645,33.8430898 24.6821969,33.4807165 24.4914657,32.9276358 L17.0524516,12.5302658 C16.6900526,11.5385289 16.1130541,10.847178 15.3214562,10.4562132 C14.5298779,10.0652289 13.7144508,10.0223124 12.875175,10.3274638 C11.9596068,10.6516956 11.3301548,11.2190916 10.9868192,12.0296516 C10.6434835,12.8401922 10.6530249,13.7413407 11.0154435,14.7330972 L21.8877946,44.5997477 C22.0213162,44.9622187 22.0260918,45.2769396 21.9021215,45.5439104 C21.7781315,45.8108812 21.6016881,45.9825471 21.3727912,46.0589082 C20.8959339,46.2303788 20.3904621,46.0301019 19.8563757,45.4580774 L12.5032346,37.5623232 C11.9500849,36.9901034 11.3921595,36.6277301 10.8294586,36.4752032 C10.2667577,36.3224811 9.6802178,36.360564 9.06983895,36.5894519 C8.15427069,36.9136447 7.52481873,37.4524687 7.18148307,38.205924 C6.83814741,38.9591839 6.80000118,39.7173263 7.06704436,40.4803512 C7.18148307,40.7854048 7.31500466,41.0523756 7.46760914,41.2812636 C7.62019409,41.5101515 7.7727888,41.7199003 7.92539327,41.91051 L16.9952322,53.325123 C20.8291731,58.1313787 24.9015426,61.1114134 29.2123407,62.2652272 C33.5230803,63.419041 37.8243467,63.2139793 42.1161401,61.6500421 Z" id="Shape"></path>
                </g>
            </g>
        </g>
    </g>
</svg>