<?xml version="1.0" encoding="UTF-8"?>
<svg width="62px" height="70px" viewBox="0 0 62 70" version="1.1" xmlns="http://www.w3.org/2000/svg" xmlns:xlink="http://www.w3.org/1999/xlink">
    <title>Group 5</title>
    <g id="컴포넌트" stroke="none" stroke-width="1" fill="none" fill-rule="evenodd">
        <g id="탭-제스쳐-리스트" transform="translate(-253.000000, -173.000000)" fill="#E67A7A">
            <g id="Group-3" transform="translate(202.000000, 146.035088)">
                <g id="Group-5" transform="translate(51.000000, 26.964912)">
                    <path d="M21.3057468,7 C19.3410887,7 17.490879,7.37190283 15.7551179,8.11570848 C14.0193567,8.85951609 12.4981754,9.88463026 11.1915741,11.191051 C9.88499027,12.4974893 8.85974816,14.0137155 8.11584772,15.7397296 C7.37194924,17.4657437 7,19.3204877 7,21.3039616 C7,23.0013647 7.28134656,24.6177196 7.84403968,26.1530263 C8.40673279,27.6883135 9.18400777,29.0757903 10.1758646,30.3154566 C10.4238444,30.6015469 10.6861218,30.8113446 10.9626966,30.9448495 C11.2392715,31.0783545 11.5110805,31.1451069 11.7781237,31.1451069 C12.254981,31.1451069 12.6746189,30.9877562 13.0370374,30.6730549 C13.3994364,30.3583731 13.6140163,29.9626333 13.6807771,29.4858355 C13.7475379,29.0090378 13.5806457,28.53224 13.1801004,28.0554423 C12.4171171,27.1399883 11.8210358,26.1053348 11.3918564,24.951482 C10.9626966,23.7976291 10.7481167,22.581789 10.7481167,21.3039616 C10.7481167,19.3586292 11.2202081,17.5897084 12.164391,15.9971992 C13.1085543,14.4046901 14.3817655,13.1316377 15.9840246,12.1780423 C17.5862641,11.2244468 19.3601716,10.747649 21.3057468,10.747649 C23.2513416,10.747649 25.0204929,11.2244468 26.6132008,12.1780423 C28.2059087,13.1316377 29.4743443,14.4046901 30.4185076,15.9971992 C31.3626904,17.5897084 31.8347818,19.3586292 31.8347818,21.3039616 C31.8347818,21.3802641 31.8347818,21.4660873 31.8347818,21.5614312 C31.8347818,21.6567947 31.8347818,21.7712289 31.8347818,21.9047338 C31.8538647,22.553178 32.0493813,23.0252105 32.4213315,23.3208313 C32.7932817,23.6164522 33.208144,23.7642626 33.6659183,23.7642626 C34.1046294,23.7642626 34.5195014,23.6164522 34.9105345,23.3208313 C35.3015481,23.0252105 35.516128,22.6294707 35.5542742,22.133612 C35.5733571,22.019168 35.5828986,21.8951936 35.5828986,21.7616886 C35.5828986,21.6281837 35.5828986,21.475608 35.5828986,21.3039616 C35.5828986,18.6720435 34.9439052,16.2737493 33.6659183,14.109079 C32.3879511,11.9444086 30.6664972,10.2183945 28.5015567,8.93103672 C26.3366162,7.64367891 23.9380129,7 21.3057468,7 Z M49.1161401,68.6500421 C53.0073296,67.238827 56.0258239,65.2553922 58.171623,62.6997375 C60.3176173,60.1440828 61.5622042,57.1354371 61.9053836,53.6738004 C62.2487583,50.2123589 61.6575209,46.3932312 60.1316715,42.2164173 L58.2718227,37.0670251 C57.6995315,35.4839879 56.9794798,34.206141 56.1116676,33.2334846 C55.2438554,32.2608086 54.3330725,31.6028242 53.3793189,31.2595313 C52.4255654,30.9162385 51.5194702,30.8971678 50.6610334,31.2023191 C50.0506545,31.4311875 49.8504503,31.8317023 50.0604206,32.4038635 L50.9185644,34.6924692 C51.1093933,35.226489 51.1332225,35.6699202 50.990052,36.0227631 C50.8470768,36.3756059 50.6134727,36.6187212 50.2892394,36.752109 C49.9458647,36.8665529 49.60249,36.8332548 49.2591153,36.6522146 C48.9157405,36.4709791 48.6487364,36.1133515 48.4581029,35.5793318 L47.9143286,34.0917264 C47.3994618,32.6994746 46.5935664,31.7267986 45.4966424,31.1736984 C44.3999137,30.6206177 43.2507413,30.5634055 42.049125,31.0020617 C41.0000547,31.383496 40.6376362,32.0319402 40.9618694,32.9473942 L42.1062565,36.0656796 C42.2970853,36.5996602 42.3256999,37.0431013 42.1921002,37.3960027 C42.0586958,37.7487088 41.8297793,37.9918534 41.5053507,38.1254364 C41.1430299,38.2398804 40.7949674,38.2112694 40.4611635,38.0396035 C40.1273595,37.8679375 39.85557,37.5055642 39.645795,36.9524835 L38.6156708,34.0917264 C38.0433796,32.5278282 37.2184306,31.5122455 36.1408239,31.0449782 C35.0631195,30.577711 33.942503,30.5634055 32.7789744,31.0020617 C31.7298846,31.383496 31.3770075,32.0319402 31.7203431,32.9473942 L33.9234201,39.0408905 C34.1141708,39.5748321 34.1427854,40.0230383 34.0092638,40.3855093 C33.8757422,40.747785 33.646855,40.9861448 33.3226022,41.1005888 C32.9601837,41.2150327 32.6120724,41.1864217 32.2782684,41.0147558 C31.9444645,40.8430898 31.6821969,40.4807165 31.4914657,39.9276358 L24.0524516,19.5302658 C23.6900526,18.5385289 23.1130541,17.847178 22.3214562,17.4562132 C21.5298779,17.0652289 20.7144508,17.0223124 19.875175,17.3274638 C18.9596068,17.6516956 18.3301548,18.2190916 17.9868192,19.0296516 C17.6434835,19.8401922 17.6530249,20.7413407 18.0154435,21.7330972 L28.8877946,51.5997477 C29.0213162,51.9622187 29.0260918,52.2769396 28.9021215,52.5439104 C28.7781315,52.8108812 28.6016881,52.9825471 28.3727912,53.0589082 C27.8959339,53.2303788 27.3904621,53.0301019 26.8563757,52.4580774 L19.5032346,44.5623232 C18.9500849,43.9901034 18.3921595,43.6277301 17.8294586,43.4752032 C17.2667577,43.3224811 16.6802178,43.360564 16.069839,43.5894519 C15.1542707,43.9136447 14.5248187,44.4524687 14.1814831,45.205924 C13.8381474,45.9591839 13.8000012,46.7173263 14.0670444,47.4803512 C14.1814831,47.7854048 14.3150047,48.0523756 14.4676091,48.2812636 C14.6201941,48.5101515 14.7727888,48.7199003 14.9253933,48.91051 L23.9952322,60.325123 C27.8291731,65.1313787 31.9015426,68.1114134 36.2123407,69.2652272 C40.5230803,70.419041 44.8243467,70.2139793 49.1161401,68.6500421 Z" id="Shape" fill-rule="nonzero"></path>
                    <path d="M21.3296585,0 C18.4003821,0 15.6417466,0.554501656 13.0537522,1.66350497 C10.4657578,2.77251119 8.19769884,4.30094138 6.24957539,6.24879553 C4.30147814,8.19667588 2.7728572,10.4573469 1.66371257,13.0308086 C0.554570858,15.6042702 0,18.3696663 0,21.3269968 C0,23.8577999 0.419483589,26.2677614 1.25845077,28.5568811 C2.09741795,30.8459718 3.25632352,32.9146792 4.73516749,34.7630035 C5.10490179,35.1895601 5.49595346,35.5023653 5.90832252,35.7014192 C6.32069158,35.9004731 6.72595484,36 7.12411231,36 C7.83509947,36 8.46077341,35.7653925 9.00113414,35.2961774 C9.54146574,34.8269914 9.86140122,34.2369492 9.96094059,33.5260507 C10.06048,32.8151523 9.8116461,32.1042538 9.21443902,31.3933554 C8.07684209,30.0284269 7.18809358,28.4857738 6.54819349,26.7653961 C5.90832252,25.0450184 5.58838703,23.2322186 5.58838703,21.3269968 C5.58838703,18.4265347 6.2922684,15.7890997 7.70003113,13.414692 C9.10776474,11.0402842 11.0061039,9.14218187 13.3950488,7.72038499 C15.7839645,6.29858812 18.4288344,5.58768968 21.3296585,5.58768968 C24.2305117,5.58768968 26.8682904,6.29858812 29.2429945,7.72038499 C31.6176986,9.14218187 33.5089174,11.0402842 34.9166511,13.414692 C36.3244138,15.7890997 37.0282952,18.4265347 37.0282952,21.3269968 C37.0282952,21.4407627 37.0282952,21.5687238 37.0282952,21.7108802 C37.0282952,21.8530658 37.0282952,22.0236855 37.0282952,22.2227393 C37.0567475,23.1895601 37.3482598,23.8933536 37.9028321,24.3341199 C38.4574044,24.7748863 39.075958,24.9952695 39.7584928,24.9952695 C40.4126045,24.9952695 41.0311727,24.7748863 41.6141973,24.3341199 C42.1971928,23.8933536 42.5171283,23.3033114 42.5740037,22.5639933 C42.602456,22.393359 42.6166822,22.208515 42.6166822,22.0094611 C42.6166822,21.8104072 42.6166822,21.5829191 42.6166822,21.3269968 C42.6166822,17.4028456 41.6639524,13.8270241 39.7584928,10.5995324 C37.8530624,7.37204068 35.2863999,4.79857902 32.0585054,2.87914741 C28.8306109,0.959715804 25.2543286,0 21.3296585,0 Z" id="Path"></path>
                </g>
            </g>
        </g>
    </g>
</svg>