<?xml version="1.0" encoding="UTF-8"?>
<svg width="59px" height="74px" viewBox="0 0 59 74" version="1.1" xmlns="http://www.w3.org/2000/svg" xmlns:xlink="http://www.w3.org/1999/xlink">
    <title>Group 3</title>
    <g id="컴포넌트" stroke="none" stroke-width="1" fill="none" fill-rule="evenodd">
        <g id="드래그-제스쳐-리스트" transform="translate(-258.000000, -175.000000)" fill="#E67A7A" fill-rule="nonzero">
            <g id="Group-Copy-2" transform="translate(202.000000, 146.035088)">
                <g id="Group-3" transform="translate(56.000000, 28.964912)">
                    <g id="hand.draw.fill" transform="translate(4.000000, 26.000000)">
                        <rect id="Rectangle" opacity="0" x="0" y="0" width="55" height="47.3675171"></rect>
                        <path d="M12.4438656,5.22148864 C9.94999724,6.73137738 7.76998397,8.65266624 5.90382584,10.9853552 C4.03768507,13.3180616 2.58717717,15.9773395 1.55230213,18.9631891 C0.517434045,21.9490386 -7.10542736e-15,25.18087 -7.10542736e-15,28.6586833 C-7.10542736e-15,29.1167887 0.16540955,29.515481 0.49622865,29.8547604 C0.827046013,30.1940398 1.21300105,30.355167 1.65409376,30.3381423 C2.09518474,30.3212912 2.45993525,30.1601639 2.7483453,29.8547604 C3.03674145,29.5493568 3.18942585,29.1676024 3.2063985,28.7094971 C3.30818231,24.1459724 4.28367564,20.1168084 6.1328785,16.6220051 C7.98206398,13.1272017 10.4674374,10.3703788 13.5889986,8.35153626 L12.4438656,5.22148864 Z M43.5408523,46.1667496 C47.0017451,44.9112596 49.6864473,43.1468505 51.5949589,40.8735224 C53.5034705,38.6001943 54.6104281,35.9240045 54.9158316,32.844953 C55.2212352,29.7657278 54.6953782,26.3684347 53.3382607,22.6530737 L51.6840784,18.0725156 C51.1580477,16.6644106 50.5133648,15.5277553 49.7500296,14.6625495 C48.9865207,13.7973263 48.1807105,13.2120303 47.332599,12.9066615 C46.4843137,12.6012927 45.6784166,12.5843287 44.9149077,12.8557695 C44.372026,13.0593372 44.1938739,13.4155979 44.3804515,13.9245517 L45.1186838,15.9603582 C45.3052614,16.435384 45.334881,16.8298202 45.2075427,17.1436666 C45.0803781,17.4575305 44.8726064,17.6738406 44.5842276,17.7925971 C44.2788241,17.8943809 43.9734205,17.8646918 43.668017,17.7035297 C43.3626134,17.5423503 43.1251352,17.2242564 42.9555824,16.7492479 L42.4719399,15.4259541 C42.0140083,14.1875062 41.2972307,13.3222917 40.3216071,12.8303106 C39.3461572,12.3383294 38.3240629,12.2874375 37.2553242,12.6776349 C36.3222625,13.0169316 35.999921,13.5937413 36.2882998,14.4080639 L37.3061379,17.1818421 C37.4758645,17.6568679 37.5013148,18.0513041 37.3824888,18.3651505 C37.2636629,18.6790144 37.0600605,18.8953245 36.7716817,19.014081 C36.4494271,19.1158648 36.1398542,19.0904145 35.8429631,18.9377301 C35.5460719,18.7850457 35.3043375,18.4627129 35.1177599,17.9707318 L34.2015493,15.4259541 C33.6925434,14.0348218 32.9588278,13.1314406 32.0004027,12.7158103 C31.0418039,12.3001627 30.045073,12.2874375 29.0102101,12.6776349 C28.0771484,13.0169316 27.754807,13.5937413 28.0431857,14.4080639 L30.0280482,19.8284036 C30.1977748,20.3034294 30.2232251,20.7021044 30.1043991,21.0244285 C29.9857469,21.34677 29.7822314,21.5588326 29.4938526,21.6606164 C29.1714243,21.7624176 28.8617645,21.736976 28.5648734,21.5842916 C28.2679822,21.4316072 28.0262478,21.1092657 27.8396702,20.6172672 L21.2487385,2.47314856 C20.9263971,1.59096487 20.4132045,0.975981491 19.7091607,0.628198422 C19.0050995,0.280414659 18.2798443,0.242243558 17.5333949,0.513685121 C16.7190723,0.802089956 16.1592179,1.30679972 15.8538318,2.02781442 C15.548463,2.74882564 15.5569493,3.55042049 15.8792907,4.43259896 L25.5493782,30.9997631 C25.6681346,31.3221914 25.6723734,31.6021447 25.5620946,31.8396229 C25.4518158,32.0771011 25.2948926,32.2298028 25.0913249,32.2977282 C24.6671997,32.45043 24.2176241,32.2722779 23.7425983,31.763272 L17.2025585,24.7397721 C16.7105773,24.2308183 16.2143487,23.9084855 15.7138725,23.7727738 C15.2134137,23.6370447 14.6917435,23.6709726 14.1488617,23.8745576 C13.3345391,24.1629711 12.7704459,24.6422358 12.4565821,25.3123516 C12.1427357,25.9825196 12.1130465,26.656883 12.3675147,27.3354417 C12.4693159,27.6067957 12.5838336,27.8442739 12.7110677,28.0478762 C12.8383018,28.2514786 12.9697834,28.4381431 13.1055125,28.6078696 L21.1978466,38.7614953 C24.6078909,43.0366238 28.2299371,45.6873633 32.063985,46.7137138 C35.898033,47.7400643 39.7236554,47.5577429 43.5408523,46.1667496 Z" id="Shape"></path>
                    </g>
                    <g id="photo.fill">
                        <rect id="Rectangle" opacity="0" x="0" y="0" width="32" height="25"></rect>
                        <path d="M4.2883916,22.8272659 C3.63698624,22.8272659 3.12355508,22.6394026 2.74809813,22.2636761 C2.37264117,21.8880422 2.18491269,21.3697843 2.18491269,20.7089023 L2.18491269,19.8805518 L6.35115363,16.2412048 C6.64971635,15.978669 6.95732572,15.7794959 7.27398175,15.6436855 C7.59062851,15.5078751 7.89823326,15.43997 8.19679598,15.43997 C8.90248126,15.43997 9.55388199,15.7160868 10.1509982,16.2683205 L12.7430241,18.604027 L19.2299054,12.8462886 C19.890362,12.2668929 20.6186801,11.977195 21.4148598,11.977195 C21.7857123,11.977195 22.158881,12.0496195 22.5343657,12.1944684 C22.9098505,12.3393173 23.2559209,12.5611193 23.5725769,12.8598743 L29.8151846,18.6447701 L29.8151846,20.736018 C29.8151846,21.3878151 29.6274422,21.8993057 29.2519575,22.2704898 C28.8764727,22.6416739 28.3675811,22.8272659 27.7252826,22.8272659 L4.2883916,22.8272659 Z M10.1781381,12.8462886 C9.56292864,12.8462886 9.00199908,12.6946492 8.49534943,12.3913702 C7.98870905,12.0880913 7.583847,11.6829685 7.28076327,11.1760019 C6.97767954,10.669026 6.82613767,10.1077352 6.82613767,9.49212949 C6.82613767,8.87652381 6.97767954,8.31523301 7.28076327,7.80825708 C7.583847,7.30129043 7.98870905,6.89616764 8.49534943,6.59288873 C9.00199908,6.28960981 9.56292864,6.13797035 10.1781381,6.13797035 C10.7843056,6.13797035 11.3407095,6.28960981 11.8473499,6.59288873 C12.3539995,6.89616764 12.7588616,7.30129043 13.061936,7.80825708 C13.3650198,8.31523301 13.5165616,8.87652381 13.5165616,9.49212949 C13.5165616,10.1077352 13.3650198,10.669026 13.061936,11.1760019 C12.7588616,11.6829685 12.3539995,12.0880913 11.8473499,12.3913702 C11.3407095,12.6946492 10.7843056,12.8462886 10.1781381,12.8462886 Z M4.26125164,25 L27.7387623,25 C29.1682539,25 30.2358331,24.6492106 30.9414999,23.9476319 C31.6471666,23.2459605 32,22.1980421 32,20.8038769 L32,4.2096671 C32,2.81550185 31.6471666,1.76534889 30.9414999,1.05920822 C30.2358331,0.353069407 29.1682539,0 27.7387623,0 L4.26125164,0 C2.8408298,0 1.77551665,0.350806055 1.06531222,1.05241817 C0.355104072,1.75402842 0,2.80644473 0,4.2096671 L0,20.8038769 C0,22.1980421 0.355104072,23.2459605 1.06531222,23.9476319 C1.77551665,24.6492106 2.8408298,25 4.26125164,25 Z" id="Shape"></path>
                    </g>
                </g>
            </g>
        </g>
    </g>
</svg>