<?xml version="1.0" encoding="UTF-8"?>
<svg width="52px" height="52px" viewBox="0 0 52 52" version="1.1" xmlns="http://www.w3.org/2000/svg" xmlns:xlink="http://www.w3.org/1999/xlink">
    <title>Group 7</title>
    <defs>
        <filter x="-130.2%" y="-130.2%" width="360.4%" height="360.4%" filterUnits="objectBoundingBox" id="filter-1">
            <feOffset dx="6" dy="6" in="SourceAlpha" result="shadowOffsetOuter1"></feOffset>
            <feGaussianBlur stdDeviation="3" in="shadowOffsetOuter1" result="shadowBlurOuter1"></feGaussianBlur>
            <feColorMatrix values="0 0 0 0 0   0 0 0 0 0   0 0 0 0 0  0 0 0 0.5 0" type="matrix" in="shadowBlurOuter1" result="shadowMatrixOuter1"></feColorMatrix>
            <feMerge>
                <feMergeNode in="shadowMatrixOuter1"></feMergeNode>
                <feMergeNode in="SourceGraphic"></feMergeNode>
            </feMerge>
        </filter>
    </defs>
    <g id="컴포넌트" stroke="none" stroke-width="1" fill="none" fill-rule="evenodd">
        <g id="Group-7" transform="translate(17.000000, 17.000000)" fill="#1B50FE" fill-rule="nonzero">
            <g id="custom.arrow.right.square.fill-copy" transform="translate(14.018692, 0.560748)">
                <rect id="Rectangle" fill-opacity="0.6" opacity="0" x="0" y="0" width="15.9813084" height="15.9813084"></rect>
                <path d="M2.60430846,15.9813084 L13.377,15.9813084 C14.2416968,15.9813084 14.8919375,15.7626838 15.327722,15.3254346 C15.7634463,14.8882457 15.9813084,14.2449663 15.9813084,13.3955965 L15.9813084,2.58029553 C15.9813084,1.73096187 15.7634463,1.08857887 15.327722,0.653146527 C14.8919375,0.217715509 14.2416968,0 13.377,0 L2.60430846,0 C1.74354809,0 1.09430598,0.216819739 0.656582142,0.650459216 C0.218860714,1.08409158 0,1.72737036 0,2.58029553 L0,13.3955965 C0,14.2521373 0.218860714,14.8972245 0.656582142,15.3308581 C1.09430598,15.7644916 1.74354809,15.9813084 2.60430846,15.9813084 Z M12.6169842,7.96273609 C12.6169842,8.10487824 12.553205,8.2414704 12.4256466,8.37251259 L9.22453813,11.5729616 C9.12127366,11.6761876 8.99658466,11.7278006 8.85047115,11.7278006 C8.70435161,11.7278006 8.58413259,11.6787788 8.48981408,11.5807351 C8.39550763,11.4826915 8.3483544,11.3606342 8.3483544,11.214563 C8.3483544,11.0685522 8.40195488,10.9419452 8.50915582,10.834742 L9.91393252,9.44236603 L11.0229858,8.44060378 L9.35266928,8.49256027 L3.8718935,8.49256027 C3.71826272,8.49256027 3.59151808,8.44264962 3.49165958,8.34282833 C3.39179505,8.24300101 3.34186279,8.11809635 3.34186279,7.96811433 C3.34186279,7.80736981 3.39179505,7.67708691 3.49165958,7.57726561 C3.59151808,7.4774383 3.71826272,7.42752464 3.8718935,7.42752464 L9.35266928,7.42752464 L11.0225337,7.49613106 L9.91393252,6.48902673 L8.50915582,5.09069405 C8.40195488,4.97568715 8.3483544,4.84907108 8.3483544,4.71084586 C8.3483544,4.56478679 8.39550763,4.44372373 8.48981408,4.34765665 C8.58413259,4.25157753 8.70435161,4.20353797 8.85047115,4.20353797 C9.00050304,4.20353797 9.12519204,4.25319854 9.22453813,4.35251967 L12.4256466,7.55882594 C12.553205,7.68988018 12.6169842,7.8245169 12.6169842,7.96273609 Z" id="Shape" fill-opacity="0.510000014"></path>
            </g>
            <g id="custom.arrow.right.square.fill" filter="url(#filter-1)">
                <rect id="Rectangle" opacity="0" x="0" y="0" width="17.6635514" height="17.6635514"></rect>
                <path d="M2.87844619,17.6635514 L14.7851052,17.6635514 C15.7408228,17.6635514 16.4595099,17.4219137 16.9411664,16.9386383 C17.4227564,16.4554294 17.6635514,15.7444364 17.6635514,14.8056593 L17.6635514,2.85190559 C17.6635514,1.91316839 17.4227564,1.20316612 16.9411664,0.721898793 C16.4595099,0.240632931 15.7408228,0 14.7851052,0 L2.87844619,0 C1.92707946,0 1.20949608,0.239642869 0.725696051,0.718928608 C0.241898684,1.19820649 0,1.90919881 0,2.85190559 L0,14.8056593 C0,15.7523623 0.241898684,16.4653534 0.725696051,16.9446326 C1.20949608,17.4239118 1.92707946,17.6635514 2.87844619,17.6635514 Z M13.9450878,8.80091884 C13.9450878,8.95802331 13.874595,9.1089936 13.7336094,9.2538297 L10.1955421,12.791168 C10.0814077,12.9052599 9.94359357,12.9623059 9.78209969,12.9623059 C9.62059915,12.9623059 9.48772549,12.9081239 9.38347872,12.7997599 C9.27924527,12.6913959 9.22712855,12.5564904 9.22712855,12.3950434 C9.22712855,12.2336629 9.28637118,12.0937289 9.40485644,11.9752411 L10.9575044,10.4362993 L12.1833001,9.32908839 L10.3371608,9.38651398 L4.27946123,9.38651398 C4.10965879,9.38651398 3.96957261,9.33134958 3.85920269,9.22102079 C3.74882611,9.11068533 3.69363782,8.9726328 3.69363782,8.80686321 C3.69363782,8.62919821 3.74882611,8.48520132 3.85920269,8.37487252 C3.96957261,8.26453707 4.10965879,8.20936934 4.27946123,8.20936934 L10.3371608,8.20936934 L12.1828004,8.28519749 L10.9575044,7.17208218 L9.40485644,5.62655658 C9.28637118,5.49944369 9.22712855,5.35949962 9.22712855,5.20672437 C9.22712855,5.04529067 9.27924527,4.91148412 9.38347872,4.80530472 C9.48772549,4.69911201 9.62059915,4.64601565 9.78209969,4.64601565 C9.94792442,4.64601565 10.0857386,4.70090365 10.1955421,4.81067963 L13.7336094,8.35449183 C13.874595,8.49934125 13.9450878,8.64815025 13.9450878,8.80091884 Z" id="Shape" fill-opacity="0.850000024"></path>
            </g>
        </g>
    </g>
</svg>